HIERARCHY
ROOT root
{
	OFFSET	0	13.1	24.9
	CHANNELS 6  Xposition Yposition Zposition Xrotation Yrotation Zrotation
	JOINT spine_1
	{
		OFFSET	0	9.99999	0
		CHANNELS 3  Xrotation Yrotation Zrotation
		JOINT spine_2
		{
			OFFSET	0	112	-10
			CHANNELS 3  Xrotation Yrotation Zrotation
			JOINT spine_3
			{
				OFFSET	0	206.5	19.3
				CHANNELS 3  Xrotation Yrotation Zrotation
				JOINT spine_4
				{
					OFFSET	0	110.4	14.6
					CHANNELS 3  Xrotation Yrotation Zrotation
					JOINT neck_1
					{
						OFFSET	0	71.8	-50.3
						CHANNELS 3  Xrotation Yrotation Zrotation
						JOINT neck_2
						{
							OFFSET	0	86.2	-25.8
							CHANNELS 3  Xrotation Yrotation Zrotation
							JOINT head_ee
							{
								OFFSET	0	179.8	-8.7
								CHANNELS 3  Xrotation Yrotation Zrotation
								End Site
								{
									OFFSET	1	0	0
								}
							}
						}
					}
					JOINT left_clavicle
					{
						OFFSET	-43.2	22.4	-70.8
						CHANNELS 3  Xrotation Yrotation Zrotation
						JOINT left_shoulder
						{
							OFFSET	-93.9	-5.79999	48.7
							CHANNELS 3  Xrotation Yrotation Zrotation
							JOINT left_elbow
							{
								OFFSET	-291.4	-30.8	15.2
								CHANNELS 3  Xrotation Yrotation Zrotation
								JOINT left_lowarm_twist
								{
									OFFSET	-110.7	-3.89999	13.6
									CHANNELS 3  Xrotation Yrotation Zrotation
									JOINT left_hand
									{
										OFFSET	-110.7	-3.89999	13.6
										CHANNELS 3  Xrotation Yrotation Zrotation
										JOINT left_ee
										{
											OFFSET	-80.8	-5.10001	12.1
											CHANNELS 3  Xrotation Yrotation Zrotation
											End Site
											{
												OFFSET	1	0	0
											}
										}
									}
								}
							}
						}
					}
					JOINT right_clavicle
					{
						OFFSET	43.2	22.4	-70.8
						CHANNELS 3  Xrotation Yrotation Zrotation
						JOINT right_shoulder
						{
							OFFSET	93.9	-5.79999	48.7
							CHANNELS 3  Xrotation Yrotation Zrotation
							JOINT right_elbow
							{
								OFFSET	291.4	-30.8	15.2
								CHANNELS 3  Xrotation Yrotation Zrotation
								JOINT right_lowarm_twist
								{
									OFFSET	110.7	-3.89999	13.6
									CHANNELS 3  Xrotation Yrotation Zrotation
									JOINT right_hand
									{
										OFFSET	110.7	-3.89999	13.6
										CHANNELS 3  Xrotation Yrotation Zrotation
										JOINT right_ee
										{
											OFFSET	80.8	-5.10001	12.1
											CHANNELS 3  Xrotation Yrotation Zrotation
											End Site
											{
												OFFSET	1	0	0
											}
										}
									}
								}
							}
						}
					}
				}
			}
		}
	}
	JOINT left_hip
	{
		OFFSET	-82.8	-127.5	0.300001
		CHANNELS 3  Xrotation Yrotation Zrotation
		JOINT left_knee
		{
			OFFSET	-28.2	-396.7	2.2
			CHANNELS 3  Xrotation Yrotation Zrotation
			JOINT left_ankle
			{
				OFFSET	-11.7	-411.3	35.4
				CHANNELS 3  Xrotation Yrotation Zrotation
				JOINT left_toes
				{
					OFFSET	0	-60	-88.6
					CHANNELS 3  Xrotation Yrotation Zrotation
					JOINT left_foot_ee
					{
						OFFSET	-22.5	-16.5	-42.2
						CHANNELS 3  Xrotation Yrotation Zrotation
						End Site
						{
							OFFSET	1	0	0
						}
					}
				}
			}
		}
	}
	JOINT right_hip
	{
		OFFSET	82.8	-127.5	0.300001
		CHANNELS 3  Xrotation Yrotation Zrotation
		JOINT right_knee
		{
			OFFSET	28.2	-396.7	2.2
			CHANNELS 3  Xrotation Yrotation Zrotation
			JOINT right_ankle
			{
				OFFSET	11.7	-411.3	35.4
				CHANNELS 3  Xrotation Yrotation Zrotation
				JOINT right_toes
				{
					OFFSET	0	-60	-88.6
					CHANNELS 3  Xrotation Yrotation Zrotation
					JOINT right_foot_ee
					{
						OFFSET	22.5	-16.5	-42.2
						CHANNELS 3  Xrotation Yrotation Zrotation
						End Site
						{
							OFFSET	1	0	0
						}
					}
				}
			}
		}
	}
}
MOTION
Frames: 15
Frame Time: 0.02
299.786 745.768 -489.509 83.7136 -71.9173 81.1881 -8.24972 0.277831 1.49602 -8.24849 0.182084 1.51066 -8.24026 -0.355269 1.47955 -8.24329 -0.117172 1.51708 -4.9793 -1.61805 -2.31086 -4.96503 -1.23576 -2.63424 -0.0 0.0 -0.0 3.91082 6.22019 7.81806 -16.7829 -17.2239 66.3636 0.565417 -15.6472 0.0776906 -25.9564 -1.59594 2.88095 4.67881 14.1802 38.1149 -0.0 0.0 -0.0 9.25476 28.501 -16.9228 11.0712 18.8246 -49.7806 1.91587 43.4984 -0.764382 -4.45126 0.177944 -0.540303 -2.54766 -11.5816 11.4638 0.0 0.0 0.0 3.36754 17.9037 -2.35066 -20.1459 0.293876 3.06168 6.78257 -24.4814 -1.15586 -12.7235 0.0 0.0 -0.0 0.0 -0.0 -24.1409 -11.5819 -1.3712 -1.43437 -0.0563973 -0.212894 29.2488 6.52718 3.90283 38.7762 -0.0 -0.0 0.0 0.0 0.0 
306.53 745.529 -489.732 80.3335 -72.1405 77.8552 -8.07996 0.315739 1.60644 -8.07855 0.212891 1.62327 -8.06857 -0.360816 1.59693 -8.07211 -0.104118 1.63386 -4.83399 -2.04481 -3.00495 -4.80985 -1.48851 -3.41523 -0.0 0.0 -0.0 3.62986 6.56027 7.32109 -16.9428 -17.1333 66.5634 0.575001 -15.8992 0.0802958 -26.2978 -1.62529 2.9134 4.6542 14.3398 37.9554 -0.0 0.0 -0.0 9.60769 28.3911 -17.7192 13.0648 19.1204 -49.3526 1.94869 43.9845 -0.78708 -4.30511 0.171436 -0.522787 -2.65839 -12.0599 11.9339 0.0 0.0 0.0 4.26025 17.5474 -1.25266 -17.7937 0.315376 2.70143 6.60811 -23.0165 -1.10914 -13.3537 0.0 0.0 -0.0 0.0 -0.0 -24.3338 -11.5486 -1.76125 -1.18802 -0.0470909 -0.176233 27.4668 6.68183 3.70707 38.5903 -0.0 -0.0 0.0 0.0 0.0 
315.198 738.354 -487.629 79.6319 -72.6249 77.2175 -7.9357 0.432638 1.56171 -7.93441 0.332399 1.58607 -7.92122 -0.231638 1.60388 -7.92481 0.0245372 1.62033 -5.67614 -2.17942 -3.18068 -5.64905 -1.65998 -3.61707 -0.0 0.0 -0.0 3.02883 6.44628 6.22755 -17.041 -17.3101 67.5031 0.565061 -15.6379 0.0775946 -27.0976 -1.6948 2.98876 4.79875 14.6547 39.2324 -0.0 0.0 -0.0 9.51994 28.7809 -17.4778 15.5049 21.1193 -48.6659 2.00816 44.845 -0.828697 -4.23764 0.168448 -0.514695 -2.7538 -12.3079 12.4223 0.0 0.0 0.0 7.34604 17.5524 -1.22418 -14.6044 0.32088 2.21219 4.67156 -20.3763 -0.76892 -14.0421 0.0 0.0 -0.0 0.0 -0.0 -24.7009 -11.508 -2.02184 -0.80843 -0.0324429 -0.119821 26.4569 6.06276 3.58319 38.3352 -0.0 -0.0 0.0 0.0 0.0 
327.488 736.347 -486.365 80.0727 -72.6219 77.9325 -7.90642 0.603944 1.78973 -7.90478 0.488855 1.82452 -7.88373 -0.165154 1.88162 -7.88864 0.134031 1.88409 -5.70512 -2.64293 -4.19008 -5.6578 -1.76755 -4.72284 -0.0 0.0 -0.0 2.95638 6.65318 6.10806 -17.9138 -16.7927 67.1683 0.550493 -15.2537 0.0737147 -27.4595 -1.72659 3.02254 4.63989 14.5562 37.8952 -0.0 0.0 -0.0 9.95979 29.078 -18.4194 17.2523 20.6417 -48.2032 2.06779 45.683 -0.871059 -3.69171 0.144613 -0.449096 -2.93314 -13.5858 12.8998 0.0 0.0 0.0 8.38201 17.5552 -1.5286 -12.4904 0.309521 1.88806 4.77633 -18.1175 -0.769969 -15.6322 0.0 0.0 -0.0 0.0 -0.0 -25.6635 -11.4717 -2.15364 0.163437 0.00676447 0.0241685 22.6815 7.63935 3.15792 38.0498 -0.0 -0.0 0.0 0.0 0.0 
338.103 733.466 -481.649 83.111 -72.8509 81.0981 -7.72588 0.705749 1.94193 -7.72397 0.580773 1.98288 -7.69741 -0.126245 2.06229 -7.70329 0.20097 2.05636 -6.57345 -2.63014 -4.18441 -6.52617 -1.82344 -4.71357 -0.0 0.0 -0.0 2.47403 6.55293 5.2319 -18.6337 -16.5583 67.6974 0.527196 -14.6365 0.0677066 -28.272 -1.79876 3.09765 4.62371 14.8708 37.8447 -0.0 0.0 -0.0 10.1939 29.4569 -18.8934 19.0232 21.3809 -48.9608 2.15562 46.8728 -0.934534 -3.20749 0.123998 -0.390726 -3.10591 -14.7576 13.3697 0.0 0.0 0.0 8.7714 17.2897 -1.14583 -10.3301 0.285569 1.55748 4.96549 -15.9252 -0.785684 -17.1363 0.0 0.0 -0.0 0.0 -0.0 -26.3745 -11.4365 -2.21631 1.29361 0.0554268 0.190766 18.4123 8.28615 2.62779 37.441 -0.0 -0.0 0.0 0.0 0.0 
349.417 732.49 -476.748 89.1427 -73.0949 87.2544 -7.69358 0.927853 2.08628 -7.69151 0.793248 2.14107 -7.65404 0.0218523 2.28312 -7.66112 0.382061 2.25105 -8.29049 -2.43268 -3.45143 -8.25888 -2.11916 -3.95006 -0.0 0.0 -0.0 2.31531 6.49234 4.94152 -18.8605 -16.4082 68.0491 0.536231 -14.8763 0.0700079 -29.5375 -1.91328 3.21259 4.57627 15.0762 37.5118 -0.0 0.0 -0.0 10.4972 29.9352 -19.5082 21.9125 22.2187 -49.8256 2.20036 47.4593 -0.967345 -2.55029 0.0968097 -0.311235 -3.38629 -16.3234 14.2771 0.0 0.0 0.0 9.43618 17.7592 -0.968315 -9.30783 0.269893 1.4014 4.78041 -9.67443 -0.725818 -19.3126 0.0 0.0 -0.0 0.0 -0.0 -27.4729 -11.3186 -2.69594 2.9924 0.134743 0.439335 14.0287 10.2779 2.06421 36.8257 -0.0 -0.0 0.0 0.0 0.0 
360.842 729.836 -479.46 91.2374 -72.7117 89.565 -7.65687 0.807216 2.01914 -7.65486 0.677126 2.06638 -7.62333 -0.0610581 2.1736 -7.62981 0.282906 2.15598 -7.97562 -2.42886 -3.71969 -7.93844 -1.89875 -4.21255 -0.0 0.0 -0.0 2.25613 6.43193 4.83051 -19.2201 -16.1477 69.0357 0.536223 -14.8761 0.0700059 -30.1062 -1.96556 3.26342 4.64048 15.285 38.087 -0.0 0.0 -0.0 10.5336 29.6387 -19.6281 21.675 22.5763 -49.6096 2.31997 48.9652 -1.05653 -1.61673 0.059763 -0.197801 -3.51732 -17.1326 14.6397 0.0 0.0 0.0 9.993 17.6808 -0.840869 -9.21165 0.268275 1.38673 4.06804 -9.79779 -0.619476 -19.8661 0.0 0.0 -0.0 0.0 -0.0 -28.3037 -11.1274 -2.1119 1.81852 0.079146 0.267815 9.38854 9.73172 1.40332 35.669 -0.0 -0.0 0.0 0.0 0.0 
371.721 726.669 -479.879 95.7385 -72.7538 93.6755 -7.71141 1.11239 2.15036 -7.70936 0.973336 2.21675 -7.66306 0.165474 2.41527 -7.67079 0.544738 2.35888 -8.74056 -1.87981 -3.20216 -8.71266 -1.29053 -3.5827 -0.0 0.0 -0.0 2.04905 6.26041 4.44396 -19.4009 -16.1418 69.2932 0.584669 -16.1526 0.0829648 -30.1484 -1.96946 3.26718 4.76853 14.437 38.9242 -0.0 0.0 -0.0 10.2681 29.9278 -18.9985 22.6643 23.5707 -49.4855 2.38351 49.7301 -1.10475 -0.270833 0.00962111 -0.0332499 -3.47076 -17.1441 14.3385 0.0 0.0 0.0 10.4384 17.5864 -0.460542 -10.3486 0.285826 1.5603 4.48819 -9.06579 -0.679792 -20.5766 0.0 0.0 -0.0 0.0 -0.0 -28.4362 -10.9058 -1.36177 4.34529 0.203172 0.635579 4.43507 7.82088 0.667507 34.1431 -0.0 -0.0 0.0 0.0 0.0 
384.1 724.247 -482.388 96.172 -72.4051 93.5664 -7.65083 1.08825 2.1645 -7.64872 0.948343 2.22932 -7.60318 0.140208 2.4185 -7.61096 0.520297 2.36605 -8.83583 -1.56621 -1.88947 -8.82674 -1.62149 -2.21953 -0.0 0.0 -0.0 2.03109 5.9522 4.38811 -19.1787 -16.2892 69.5527 0.560095 -15.5071 0.0762615 -32.5142 -2.19248 3.47286 4.90695 15.1041 40.2563 -0.0 0.0 -0.0 10.0832 30.0966 -18.5649 22.6832 24.4584 -49.0702 2.45073 50.5136 -1.15633 1.61958 -0.054242 0.199735 -3.34674 -19.1187 12.4229 0.0 0.0 0.0 10.5624 17.3876 -0.052744 -11.0838 0.295341 1.6727 4.27542 -9.46524 -0.64942 -21.4352 0.0 0.0 -0.0 0.0 -0.0 -29.8747 -10.5462 -0.538916 5.63678 0.272812 0.821392 -0.413209 7.49962 -0.0629465 33.3569 -0.0 -0.0 0.0 0.0 0.0 
401.771 718.649 -485.043 101.142 -72.002 97.5853 -7.64404 1.4368 1.77635 -7.64326 1.32087 1.86415 -7.59393 0.614777 2.20031 -7.59942 0.954487 2.07569 -7.31282 0.426276 2.65278 -7.29239 -1.11151 2.73331 -0.0 0.0 -0.0 2.04283 6.16494 4.42551 -18.9791 -16.3864 69.8068 0.597435 -16.4864 0.0865522 -31.3532 -2.08197 3.37306 5.06086 14.8073 41.4993 -0.0 0.0 -0.0 8.72197 30.1019 -15.5519 23.1541 25.7668 -50.214 2.51406 51.2287 -1.20546 2.89537 -0.0929782 0.358089 -3.62674 -21.6526 12.6376 0.0 0.0 0.0 10.5152 17.1486 0.907979 -12.4521 0.309205 1.88219 8.00918 -8.05456 -1.19257 -22.9577 0.0 0.0 -0.0 0.0 -0.0 -30.9223 -8.90765 1.6807 6.19305 0.304099 0.900943 -6.80968 5.95068 -1.04399 36.2541 -0.0 -0.0 0.0 0.0 0.0 
414.089 713.615 -489.853 100.996 -71.5222 96.8147 -7.70043 1.40501 2.07919 -7.69892 1.26989 2.16434 -7.64241 0.463433 2.46609 -7.64989 0.846983 2.36204 -8.3948 0.613127 2.06219 -8.38272 -0.300118 2.1737 -0.0 0.0 -0.0 1.99542 6.00042 4.32712 -18.1219 -16.7013 70.3351 0.582645 -16.0996 0.0824027 -36.3931 -2.57599 3.78976 5.34074 18.1902 44.743 -0.0 0.0 -0.0 9.03129 29.8654 -16.2635 21.0488 26.8104 -48.0615 2.72768 53.4861 -1.37464 6.72711 -0.187982 0.83825 -3.09762 -21.1778 9.74286 0.0 0.0 0.0 10.6616 16.7201 2.16969 -12.5026 0.309621 1.88992 3.42138 -7.64494 -0.516083 -23.7872 0.0 0.0 -0.0 0.0 -0.0 -32.1089 -9.62068 2.38991 6.23882 0.306707 0.907475 -12.9006 2.48303 -1.96745 38.0226 -0.0 -0.0 0.0 0.0 0.0 
429.323 715.386 -493.38 100.43 -71.8202 96.0689 -7.58399 1.28032 2.16662 -7.58211 1.1399 2.24365 -7.52854 0.319119 2.49618 -7.53654 0.709225 2.41453 -9.8219 -0.209414 0.488701 -9.82133 -0.725706 0.425672 -0.0 0.0 -0.0 1.45369 5.76126 3.32451 -16.6921 -16.847 70.8172 0.603164 -16.6357 0.0881851 -34.8477 -2.42062 3.6666 5.22908 13.5427 42.6424 -0.0 0.0 -0.0 8.45049 29.5428 -15.0221 16.9574 28.2902 -46.5215 3.15474 57.3728 -1.7265 10.0052 -0.243626 1.25324 -2.99481 -23.1954 8.01197 0.0 0.0 0.0 10.868 16.3547 2.52865 -10.8474 0.292439 1.63655 1.49647 -9.13056 -0.228758 -24.8145 0.0 0.0 -0.0 0.0 -0.0 -32.9598 -9.36988 2.65624 6.71902 0.334392 0.975884 -15.9333 3.7339 -2.44781 31.3645 -0.0 -0.0 0.0 0.0 0.0 
441.406 711.593 -493.769 100.962 -72.2315 96.5189 -7.54468 1.31985 2.21235 -7.54273 1.17643 2.2918 -7.48639 0.339258 2.55355 -7.49473 0.738163 2.46801 -7.73572 -0.0554932 0.866409 -7.73351 -0.719756 0.84874 -0.0 0.0 -0.0 1.53553 4.91192 3.39928 -15.9099 -17.0496 70.2461 0.64153 -17.6301 0.0994877 -37.3108 -2.66982 3.86091 4.73672 16.3093 39.127 -0.0 0.0 -0.0 6.75426 29.8516 -11.268 16.2269 28.317 -47.1935 3.54573 60.3308 -2.06123 14.651 -0.281651 1.84526 -3.31984 -25.5333 8.55286 0.0 0.0 0.0 11.7349 15.9661 3.04152 -10.3913 0.286419 1.56683 -0.172713 -2.49239 0.0257513 -29.4307 0.0 0.0 -0.0 0.0 -0.0 -33.9138 -9.29848 2.85004 7.37856 0.373352 1.06947 -17.1913 0.939398 -2.61819 37.9505 -0.0 -0.0 0.0 0.0 0.0 
456.092 707.701 -492.878 100.366 -72.4773 95.7922 -7.40241 1.20499 2.27383 -7.40015 1.0579 2.34586 -7.34743 0.215559 2.5642 -7.35607 0.617695 2.49805 -9.51624 1.07093 0.758293 -9.51534 1.49322 0.999968 -0.0 0.0 -0.0 1.7792 4.10058 3.77883 -15.9254 -17.182 70.026 0.643396 -17.6782 0.100054 -37.9148 -2.73218 3.90691 4.792 17.2511 39.8002 -0.0 0.0 -0.0 6.87854 30.1481 -11.5047 15.4685 28.777 -47.4232 3.41143 59.3712 -1.9451 10.9959 -0.25576 1.3792 -3.08164 -21.5452 9.44195 0.0 0.0 0.0 11.6237 15.4641 2.96484 -12.0789 0.30592 1.82503 4.98609 -2.60525 -0.733073 -34.1968 0.0 0.0 -0.0 0.0 -0.0 -34.6942 -9.57396 2.71595 7.26503 0.366568 1.05339 -19.0097 -2.72549 -2.8724 38.2708 -0.0 -0.0 0.0 0.0 0.0 
475.907 700.964 -498.096 99.3567 -72.4317 94.7845 -7.40531 1.05675 2.27068 -7.40291 0.910159 2.33328 -7.35674 0.0799047 2.50315 -7.36517 0.474106 2.45916 -8.27324 -0.544729 1.00674 -8.27043 -1.72567 0.87471 -0.0 0.0 -0.0 1.87534 3.12751 3.87683 -15.9328 -17.5655 70.2646 0.608146 -16.7655 0.0896166 -35.6454 -2.5004 3.73069 4.99195 14.3675 40.7919 -0.0 0.0 -0.0 6.50038 29.2724 -10.7803 14.5402 28.3077 -47.6976 3.90081 62.6207 -2.37327 15.9684 -0.283687 2.01351 -3.05917 -27.2402 6.12038 0.0 0.0 0.0 11.7051 15.5941 3.73709 -13.8231 0.318075 2.09235 8.74895 -2.34458 -1.26934 -32.1309 0.0 0.0 -0.0 0.0 -0.0 -36.2177 -9.78394 2.8482 7.13872 0.359059 1.03549 -18.5756 -5.08592 -2.79656 33.6785 -0.0 -0.0 0.0 0.0 0.0 
